<mxfile host="Electron" modified="2024-02-11T16:40:30.124Z" agent="Mozilla/5.0 (Windows NT 10.0; Win64; x64) AppleWebKit/537.36 (KHTML, like Gecko) draw.io/23.0.2 Chrome/120.0.6099.109 Electron/28.1.0 Safari/537.36" etag="4bVOMNFhbbs7SqvsukYQ" version="23.0.2" type="device">
  <diagram name="Page-1" id="z6zdlaW6UJdxtrE8gBOO">
    <mxGraphModel dx="880" dy="532" grid="1" gridSize="10" guides="1" tooltips="1" connect="1" arrows="1" fold="1" page="1" pageScale="1" pageWidth="850" pageHeight="1100" math="0" shadow="0">
      <root>
        <mxCell id="0" />
        <mxCell id="1" parent="0" />
        <mxCell id="5iSmYzcAgtDPEE5sp59T-25" style="edgeStyle=orthogonalEdgeStyle;rounded=0;orthogonalLoop=1;jettySize=auto;html=1;" edge="1" parent="1" source="5iSmYzcAgtDPEE5sp59T-1" target="5iSmYzcAgtDPEE5sp59T-24">
          <mxGeometry relative="1" as="geometry" />
        </mxCell>
        <mxCell id="5iSmYzcAgtDPEE5sp59T-1" value="Home(Users lands after Login)" style="rounded=0;whiteSpace=wrap;html=1;" vertex="1" parent="1">
          <mxGeometry x="360" y="100" width="130" height="70" as="geometry" />
        </mxCell>
        <mxCell id="5iSmYzcAgtDPEE5sp59T-7" style="edgeStyle=orthogonalEdgeStyle;rounded=0;orthogonalLoop=1;jettySize=auto;html=1;exitX=0.5;exitY=1;exitDx=0;exitDy=0;entryX=0.5;entryY=0;entryDx=0;entryDy=0;" edge="1" parent="1" source="5iSmYzcAgtDPEE5sp59T-2" target="5iSmYzcAgtDPEE5sp59T-1">
          <mxGeometry relative="1" as="geometry" />
        </mxCell>
        <mxCell id="5iSmYzcAgtDPEE5sp59T-2" value="User Login" style="rounded=0;whiteSpace=wrap;html=1;" vertex="1" parent="1">
          <mxGeometry x="360" y="10" width="120" height="60" as="geometry" />
        </mxCell>
        <mxCell id="5iSmYzcAgtDPEE5sp59T-23" style="edgeStyle=orthogonalEdgeStyle;rounded=0;orthogonalLoop=1;jettySize=auto;html=1;" edge="1" parent="1" source="5iSmYzcAgtDPEE5sp59T-8" target="5iSmYzcAgtDPEE5sp59T-21">
          <mxGeometry relative="1" as="geometry" />
        </mxCell>
        <mxCell id="5iSmYzcAgtDPEE5sp59T-30" style="edgeStyle=orthogonalEdgeStyle;rounded=0;orthogonalLoop=1;jettySize=auto;html=1;entryX=0;entryY=0.5;entryDx=0;entryDy=0;exitX=0.5;exitY=0;exitDx=0;exitDy=0;" edge="1" parent="1" source="5iSmYzcAgtDPEE5sp59T-8" target="5iSmYzcAgtDPEE5sp59T-1">
          <mxGeometry relative="1" as="geometry" />
        </mxCell>
        <mxCell id="5iSmYzcAgtDPEE5sp59T-8" value="Heart Score" style="rounded=0;whiteSpace=wrap;html=1;" vertex="1" parent="1">
          <mxGeometry x="30" y="280" width="120" height="60" as="geometry" />
        </mxCell>
        <mxCell id="5iSmYzcAgtDPEE5sp59T-17" style="edgeStyle=orthogonalEdgeStyle;rounded=0;orthogonalLoop=1;jettySize=auto;html=1;" edge="1" parent="1" source="5iSmYzcAgtDPEE5sp59T-9" target="5iSmYzcAgtDPEE5sp59T-16">
          <mxGeometry relative="1" as="geometry" />
        </mxCell>
        <mxCell id="5iSmYzcAgtDPEE5sp59T-27" style="edgeStyle=orthogonalEdgeStyle;rounded=0;orthogonalLoop=1;jettySize=auto;html=1;entryX=0;entryY=0.5;entryDx=0;entryDy=0;" edge="1" parent="1" source="5iSmYzcAgtDPEE5sp59T-9" target="5iSmYzcAgtDPEE5sp59T-24">
          <mxGeometry relative="1" as="geometry" />
        </mxCell>
        <mxCell id="5iSmYzcAgtDPEE5sp59T-9" value="MYOC/Based on Goal" style="rounded=0;whiteSpace=wrap;html=1;" vertex="1" parent="1">
          <mxGeometry x="220" y="290" width="120" height="60" as="geometry" />
        </mxCell>
        <mxCell id="5iSmYzcAgtDPEE5sp59T-18" style="edgeStyle=orthogonalEdgeStyle;rounded=0;orthogonalLoop=1;jettySize=auto;html=1;entryX=0.5;entryY=0;entryDx=0;entryDy=0;" edge="1" parent="1" source="5iSmYzcAgtDPEE5sp59T-10" target="5iSmYzcAgtDPEE5sp59T-16">
          <mxGeometry relative="1" as="geometry" />
        </mxCell>
        <mxCell id="5iSmYzcAgtDPEE5sp59T-31" style="edgeStyle=orthogonalEdgeStyle;rounded=0;orthogonalLoop=1;jettySize=auto;html=1;entryX=1;entryY=0.5;entryDx=0;entryDy=0;" edge="1" parent="1" source="5iSmYzcAgtDPEE5sp59T-10" target="5iSmYzcAgtDPEE5sp59T-24">
          <mxGeometry relative="1" as="geometry" />
        </mxCell>
        <mxCell id="5iSmYzcAgtDPEE5sp59T-10" value="TYOR/Based on Goal" style="rounded=0;whiteSpace=wrap;html=1;" vertex="1" parent="1">
          <mxGeometry x="520" y="290" width="120" height="60" as="geometry" />
        </mxCell>
        <mxCell id="5iSmYzcAgtDPEE5sp59T-11" value="Nutritionist Support/Trainer Support" style="rounded=0;whiteSpace=wrap;html=1;" vertex="1" parent="1">
          <mxGeometry x="710" y="290" width="120" height="60" as="geometry" />
        </mxCell>
        <mxCell id="5iSmYzcAgtDPEE5sp59T-20" style="edgeStyle=orthogonalEdgeStyle;rounded=0;orthogonalLoop=1;jettySize=auto;html=1;" edge="1" parent="1" source="5iSmYzcAgtDPEE5sp59T-16" target="5iSmYzcAgtDPEE5sp59T-19">
          <mxGeometry relative="1" as="geometry" />
        </mxCell>
        <mxCell id="5iSmYzcAgtDPEE5sp59T-16" value="Once the plan is ready" style="rounded=0;whiteSpace=wrap;html=1;" vertex="1" parent="1">
          <mxGeometry x="380" y="350" width="120" height="60" as="geometry" />
        </mxCell>
        <mxCell id="5iSmYzcAgtDPEE5sp59T-19" value="Track your Progress" style="rounded=0;whiteSpace=wrap;html=1;" vertex="1" parent="1">
          <mxGeometry x="380" y="460" width="120" height="60" as="geometry" />
        </mxCell>
        <mxCell id="5iSmYzcAgtDPEE5sp59T-21" value="&lt;div style=&quot;&quot;&gt;&lt;span style=&quot;background-color: initial;&quot;&gt;We will use machine learning &lt;/span&gt;&lt;span style=&quot;background-color: initial;&quot;&gt;models to&lt;/span&gt;&lt;/div&gt;&lt;div style=&quot;&quot;&gt;&lt;span style=&quot;background-color: initial;&quot;&gt;get overall hear score based on lifestyle&amp;nbsp;&lt;/span&gt;&lt;/div&gt;&lt;div style=&quot;&quot;&gt;&lt;span style=&quot;background-color: initial;&quot;&gt;and everyday variables like BP, Sugar,&amp;nbsp;&lt;/span&gt;&lt;/div&gt;&lt;div style=&quot;&quot;&gt;&lt;span style=&quot;background-color: initial;&quot;&gt;Exercise,age weight, height, stress variables&amp;nbsp;&amp;nbsp;&lt;/span&gt;&lt;/div&gt;&amp;nbsp;" style="text;html=1;align=left;verticalAlign=middle;resizable=0;points=[];autosize=1;strokeColor=none;fillColor=none;" vertex="1" parent="1">
          <mxGeometry x="20" y="380" width="270" height="90" as="geometry" />
        </mxCell>
        <mxCell id="5iSmYzcAgtDPEE5sp59T-24" value="For Goal Setting get details based on height, weight duration of the required change. (Journey Based)" style="whiteSpace=wrap;html=1;" vertex="1" parent="1">
          <mxGeometry x="310" y="190" width="230" height="60" as="geometry" />
        </mxCell>
        <mxCell id="5iSmYzcAgtDPEE5sp59T-29" style="edgeStyle=orthogonalEdgeStyle;rounded=0;orthogonalLoop=1;jettySize=auto;html=1;entryX=0.625;entryY=0.033;entryDx=0;entryDy=0;entryPerimeter=0;" edge="1" parent="1" source="5iSmYzcAgtDPEE5sp59T-24" target="5iSmYzcAgtDPEE5sp59T-11">
          <mxGeometry relative="1" as="geometry" />
        </mxCell>
        <mxCell id="5iSmYzcAgtDPEE5sp59T-33" style="edgeStyle=orthogonalEdgeStyle;rounded=0;orthogonalLoop=1;jettySize=auto;html=1;" edge="1" parent="1" source="5iSmYzcAgtDPEE5sp59T-32" target="5iSmYzcAgtDPEE5sp59T-1">
          <mxGeometry relative="1" as="geometry" />
        </mxCell>
        <mxCell id="5iSmYzcAgtDPEE5sp59T-32" value="Start your Journey" style="text;html=1;align=center;verticalAlign=middle;resizable=0;points=[];autosize=1;strokeColor=none;fillColor=none;" vertex="1" parent="1">
          <mxGeometry x="530" y="110" width="120" height="30" as="geometry" />
        </mxCell>
        <mxCell id="5iSmYzcAgtDPEE5sp59T-37" value="" style="endArrow=none;dashed=1;html=1;rounded=0;" edge="1" parent="1">
          <mxGeometry width="50" height="50" relative="1" as="geometry">
            <mxPoint x="180" y="520" as="sourcePoint" />
            <mxPoint x="680" y="170" as="targetPoint" />
            <Array as="points">
              <mxPoint x="180" y="170" />
            </Array>
          </mxGeometry>
        </mxCell>
        <mxCell id="5iSmYzcAgtDPEE5sp59T-38" value="" style="endArrow=none;dashed=1;html=1;rounded=0;" edge="1" parent="1">
          <mxGeometry width="50" height="50" relative="1" as="geometry">
            <mxPoint x="180" y="520" as="sourcePoint" />
            <mxPoint x="680" y="170" as="targetPoint" />
            <Array as="points">
              <mxPoint x="680" y="520" />
            </Array>
          </mxGeometry>
        </mxCell>
        <mxCell id="5iSmYzcAgtDPEE5sp59T-39" value="Journey" style="text;html=1;align=center;verticalAlign=middle;resizable=0;points=[];autosize=1;strokeColor=none;fillColor=none;" vertex="1" parent="1">
          <mxGeometry x="185" y="188" width="70" height="30" as="geometry" />
        </mxCell>
      </root>
    </mxGraphModel>
  </diagram>
</mxfile>
